<svg width="808" height="47" viewBox="0 0 808 47" fill="none" xmlns="http://www.w3.org/2000/svg">
<path d="M403.398 42.26C402.948 39.68 401.118 36.44 397.638 33.83C395.928 32.54 394.188 31.7 392.478 31.34V30.08C395.868 29.27 399.198 26.99 401.328 23.9C402.408 22.34 403.098 20.81 403.398 19.22H404.658C405.168 22.25 407.508 25.61 410.688 27.86C412.248 28.97 413.868 29.72 415.518 30.08V31.34C412.188 32.03 408.318 35 406.398 38.03C405.438 39.56 404.868 40.97 404.658 42.26H403.398Z" fill="#D2BC99"/>
<rect x="433" y="29" width="375" height="4" rx="2" fill="#D2BC99"/>
<rect y="29" width="375" height="4" rx="2" fill="#D2BC99"/>
</svg>
