<svg width="249" height="59" viewBox="0 0 249 59" fill="none" xmlns="http://www.w3.org/2000/svg">
<path d="M0.2 25H13.08C13.2933 27.4533 13.4267 29.8 13.48 32.04C13.5867 34.28 13.64 36.4133 13.64 38.44C13.64 40.4133 13.64 42.36 13.64 44.28V57C13.1067 57.1067 12.2267 57.24 11 57.4C9.82667 57.56 8.62667 57.64 7.4 57.64C4.73333 57.64 2.86667 57.1867 1.8 56.28C0.733334 55.32 0.2 53.64 0.2 51.24V25ZM44.12 40.2H31.24C30.92 36.4667 30.7333 33.0267 30.68 29.88C30.68 26.7333 30.68 23.7467 30.68 20.92V8.28C31.2667 8.17333 32.1467 8.04 33.32 7.88C34.4933 7.72 35.6933 7.64 36.92 7.64C39.5867 7.64 41.4533 8.12 42.52 9.08C43.5867 9.98666 44.12 11.64 44.12 14.04V40.2ZM44.12 35.88V55.32C43.3733 56.0133 42.28 56.5733 40.84 57C39.4533 57.4267 37.7733 57.64 35.8 57.64C33.8267 57.64 31.96 57.3467 30.2 56.76C28.44 56.1733 27 54.76 25.88 52.52L17.96 36.36C17.4267 35.24 16.92 34.2 16.44 33.24C16.0133 32.2267 15.5867 31.1867 15.16 30.12C14.7333 29.0533 14.2533 27.88 13.72 26.6L0.2 29.56V11C0.946667 9.93333 2.09333 9.13333 3.64 8.6C5.18667 8.06667 6.84 7.8 8.6 7.8C10.5733 7.8 12.44 8.12 14.2 8.76C16.0133 9.34667 17.4533 10.7333 18.52 12.92L26.52 29.08C27.0533 30.1467 27.5333 31.1867 27.96 32.2C28.44 33.2133 28.8933 34.2533 29.32 35.32C29.8 36.3867 30.28 37.56 30.76 38.84L44.12 35.88ZM70.0969 48.36C71.0035 48.36 71.9902 48.28 73.0569 48.12C74.1769 47.9067 75.0035 47.64 75.5369 47.32V40.92L69.7769 41.4C68.2835 41.5067 67.0569 41.8267 66.0969 42.36C65.1369 42.8933 64.6569 43.6933 64.6569 44.76C64.6569 45.8267 65.0569 46.7067 65.8569 47.4C66.7102 48.04 68.1235 48.36 70.0969 48.36ZM69.4569 16.92C75.2702 16.92 79.9102 18.12 83.3769 20.52C86.8969 22.8667 88.6569 26.5467 88.6569 31.56V49.48C88.6569 50.8667 88.2569 52.0133 87.4569 52.92C86.7102 53.7733 85.8035 54.52 84.7369 55.16C83.0302 56.1733 80.9502 56.9467 78.4969 57.48C76.0435 58.0133 73.2435 58.28 70.0969 58.28C64.4969 58.28 59.9902 57.2133 56.5769 55.08C53.2169 52.8933 51.5369 49.6133 51.5369 45.24C51.5369 41.56 52.6302 38.7333 54.8169 36.76C57.0569 34.7867 60.4435 33.56 64.9769 33.08L75.4569 31.96V31.4C75.4569 29.8533 74.7635 28.76 73.3769 28.12C72.0435 27.4267 70.0969 27.08 67.5369 27.08C65.5635 27.08 63.5902 27.2933 61.6169 27.72C59.6969 28.1467 57.9635 28.68 56.4169 29.32C55.7235 28.84 55.1369 28.12 54.6569 27.16C54.1769 26.1467 53.9369 25.1067 53.9369 24.04C53.9369 21.48 55.2969 19.6667 58.0169 18.6C59.5635 18.0133 61.3769 17.5867 63.4569 17.32C65.5902 17.0533 67.5902 16.92 69.4569 16.92ZM135.373 40.6H121.773V33.48C121.773 31.2933 121.213 29.7733 120.093 28.92C119.026 28.0133 117.693 27.56 116.093 27.56C114.493 27.56 113.079 27.8533 111.853 28.44C110.626 29.0267 109.559 29.6667 108.653 30.36V19.4C109.879 18.76 111.346 18.2 113.053 17.72C114.759 17.1867 116.626 16.92 118.653 16.92C123.879 16.92 127.959 18.2533 130.893 20.92C133.879 23.5333 135.373 27.4533 135.373 32.68V40.6ZM97.1325 35.88H110.733V56.92C110.146 57.08 109.293 57.24 108.173 57.4C107.106 57.56 105.933 57.64 104.653 57.64C102.039 57.64 100.119 57.1867 98.8925 56.28C97.7192 55.3733 97.1325 53.6933 97.1325 51.24V35.88ZM121.773 35.88H135.373V56.92C134.786 57.08 133.933 57.24 132.812 57.4C131.746 57.56 130.573 57.64 129.293 57.64C126.679 57.64 124.759 57.1867 123.533 56.28C122.359 55.3733 121.773 53.6933 121.773 51.24V35.88ZM110.733 43H97.1325V4.84C97.7192 4.68 98.5458 4.52 99.6125 4.36C100.733 4.2 101.933 4.12 103.213 4.12C105.879 4.12 107.799 4.57333 108.973 5.48C110.146 6.33333 110.733 8.01333 110.733 10.52V43ZM143.449 7.32C143.449 5.29333 144.143 3.58666 145.529 2.2C146.916 0.81333 148.703 0.119998 150.889 0.119998C153.076 0.119998 154.863 0.81333 156.249 2.2C157.636 3.58666 158.329 5.29333 158.329 7.32C158.329 9.29333 157.636 11 156.249 12.44C154.863 13.8267 153.076 14.52 150.889 14.52C148.703 14.52 146.916 13.8267 145.529 12.44C144.143 11 143.449 9.29333 143.449 7.32ZM144.089 35.88H157.689V56.92C157.103 57.08 156.249 57.24 155.129 57.4C154.063 57.56 152.889 57.64 151.609 57.64C148.996 57.64 147.076 57.1867 145.849 56.28C144.676 55.3733 144.089 53.6933 144.089 51.24V35.88ZM157.689 43H144.089V18.68C144.676 18.52 145.503 18.36 146.569 18.2C147.689 18.04 148.889 17.96 150.169 17.96C152.836 17.96 154.756 18.4133 155.929 19.32C157.103 20.1733 157.689 21.8533 157.689 24.36V43ZM191.228 46.52V23.32H204.748V48.44C204.748 49.7733 204.454 50.92 203.868 51.88C203.334 52.84 202.454 53.6933 201.228 54.44C199.681 55.4533 197.681 56.3333 195.228 57.08C192.774 57.88 189.974 58.28 186.828 58.28C182.188 58.28 178.214 57.5067 174.908 55.96C171.601 54.4133 169.068 52.12 167.308 49.08C165.548 45.9867 164.668 42.2 164.668 37.72C164.668 33.0267 165.574 29.16 167.388 26.12C169.201 23.0267 171.654 20.7333 174.748 19.24C177.894 17.6933 181.388 16.92 185.228 16.92C187.094 16.92 188.721 17.1067 190.108 17.48C191.494 17.8533 192.641 18.28 193.548 18.76V29.8C192.854 29.2667 191.948 28.76 190.828 28.28C189.761 27.8 188.534 27.56 187.148 27.56C185.334 27.56 183.761 27.9333 182.428 28.68C181.148 29.4267 180.161 30.5467 179.468 32.04C178.774 33.5333 178.428 35.4267 178.428 37.72C178.428 41.08 179.148 43.56 180.588 45.16C182.081 46.76 184.134 47.56 186.748 47.56C187.708 47.56 188.588 47.4533 189.388 47.24C190.188 46.9733 190.801 46.7333 191.228 46.52ZM204.748 25.88H191.148V4.84C191.734 4.68 192.561 4.52 193.628 4.36C194.748 4.2 195.948 4.12 197.228 4.12C199.894 4.12 201.814 4.57333 202.988 5.48C204.161 6.33333 204.748 8.01333 204.748 10.52V25.88ZM229.863 48.36C230.769 48.36 231.756 48.28 232.823 48.12C233.943 47.9067 234.769 47.64 235.303 47.32V40.92L229.543 41.4C228.049 41.5067 226.823 41.8267 225.863 42.36C224.903 42.8933 224.423 43.6933 224.423 44.76C224.423 45.8267 224.823 46.7067 225.623 47.4C226.476 48.04 227.889 48.36 229.863 48.36ZM229.223 16.92C235.036 16.92 239.676 18.12 243.143 20.52C246.663 22.8667 248.423 26.5467 248.423 31.56V49.48C248.423 50.8667 248.023 52.0133 247.223 52.92C246.476 53.7733 245.569 54.52 244.503 55.16C242.796 56.1733 240.716 56.9467 238.263 57.48C235.809 58.0133 233.009 58.28 229.863 58.28C224.263 58.28 219.756 57.2133 216.343 55.08C212.983 52.8933 211.303 49.6133 211.303 45.24C211.303 41.56 212.396 38.7333 214.583 36.76C216.823 34.7867 220.209 33.56 224.743 33.08L235.223 31.96V31.4C235.223 29.8533 234.529 28.76 233.143 28.12C231.809 27.4267 229.863 27.08 227.303 27.08C225.329 27.08 223.356 27.2933 221.383 27.72C219.463 28.1467 217.729 28.68 216.183 29.32C215.489 28.84 214.903 28.12 214.423 27.16C213.943 26.1467 213.703 25.1067 213.703 24.04C213.703 21.48 215.063 19.6667 217.783 18.6C219.329 18.0133 221.143 17.5867 223.223 17.32C225.356 17.0533 227.356 16.92 229.223 16.92Z" fill="#93B437"/>
</svg>
